<svg xmlns="http://www.w3.org/2000/svg" viewBox="0 0 128 128" fill="none">
  <defs>
    <linearGradient id="gradient" x1="0%" y1="0%" x2="100%" y2="100%">
      <stop offset="0%" style="stop-color:#6366f1"/>
      <stop offset="100%" style="stop-color:#8b5cf6"/>
    </linearGradient>
  </defs>
  
  <!-- Background circle -->
  <circle cx="64" cy="64" r="60" fill="url(#gradient)"/>
  
  <!-- Chat bubble -->
  <path d="M32 48 C32 38 40 30 52 30 L76 30 C88 30 96 38 96 48 L96 68 C96 78 88 86 76 86 L56 86 L44 98 L44 86 L52 86 C40 86 32 78 32 68 Z" fill="white" opacity="0.95"/>
  
  <!-- AI dots -->
  <circle cx="52" cy="58" r="6" fill="url(#gradient)"/>
  <circle cx="64" cy="58" r="6" fill="url(#gradient)"/>
  <circle cx="76" cy="58" r="6" fill="url(#gradient)"/>
  
  <!-- Sparkle -->
  <path d="M100 24 L102 28 L106 30 L102 32 L100 36 L98 32 L94 30 L98 28 Z" fill="white" opacity="0.8"/>
  <path d="M24 80 L25.5 83 L28.5 84.5 L25.5 86 L24 89 L22.5 86 L19.5 84.5 L22.5 83 Z" fill="white" opacity="0.6"/>
</svg>
